<mxfile host="app.diagrams.net" modified="2021-06-24T02:24:48.515Z" agent="5.0 (Windows NT 10.0; Win64; x64) AppleWebKit/537.36 (KHTML, like Gecko) Chrome/91.0.4472.114 Safari/537.36" etag="iQ-dwxtW3guRdJDk3eI4" version="14.8.0" type="github">
  <diagram name="Page-1" id="03018318-947c-dd8e-b7a3-06fadd420f32">
    <mxGraphModel dx="2522" dy="762" grid="1" gridSize="10" guides="1" tooltips="1" connect="1" arrows="1" fold="1" page="1" pageScale="1" pageWidth="1100" pageHeight="850" background="none" math="0" shadow="0">
      <root>
        <mxCell id="0" />
        <mxCell id="1" parent="0" />
        <mxCell id="LAibJ-5zCVIrmC9jEC37-33" value="" style="rounded=0;whiteSpace=wrap;html=1;strokeWidth=2;fillColor=none;dashed=1;strokeColor=#FF2F0F;" vertex="1" parent="1">
          <mxGeometry x="670" y="60" width="150" height="50" as="geometry" />
        </mxCell>
        <mxCell id="677b7b8949515195-1" value="" style="whiteSpace=wrap;html=1;rounded=0;shadow=0;labelBackgroundColor=none;strokeColor=#000000;strokeWidth=1;fillColor=none;fontFamily=Verdana;fontSize=12;fontColor=#000000;align=center;comic=1;" parent="1" vertex="1">
          <mxGeometry x="-90" width="1160" height="808" as="geometry" />
        </mxCell>
        <mxCell id="677b7b8949515195-10" value="" style="whiteSpace=wrap;html=1;rounded=0;shadow=0;labelBackgroundColor=none;strokeWidth=1;fillColor=none;fontFamily=Verdana;fontSize=12;align=center;comic=1;" parent="1" vertex="1">
          <mxGeometry x="250" y="10" width="820" height="770" as="geometry" />
        </mxCell>
        <mxCell id="LAibJ-5zCVIrmC9jEC37-24" value="" style="rounded=0;whiteSpace=wrap;html=1;strokeWidth=2;fillColor=none;" vertex="1" parent="1">
          <mxGeometry x="260" y="20" width="780" height="130" as="geometry" />
        </mxCell>
        <mxCell id="LAibJ-5zCVIrmC9jEC37-25" value="" style="rounded=0;whiteSpace=wrap;html=1;strokeColor=#000000;strokeWidth=2;fillColor=none;" vertex="1" parent="1">
          <mxGeometry x="390" y="45" width="510" height="80" as="geometry" />
        </mxCell>
        <mxCell id="LAibJ-5zCVIrmC9jEC37-32" value="" style="rounded=0;whiteSpace=wrap;html=1;strokeWidth=2;fillColor=none;dashed=1;strokeColor=#FF120A;" vertex="1" parent="1">
          <mxGeometry x="460" y="60" width="160" height="50" as="geometry" />
        </mxCell>
        <mxCell id="LAibJ-5zCVIrmC9jEC37-34" value="" style="rounded=0;whiteSpace=wrap;html=1;strokeWidth=2;fillColor=none;strokeColor=#99004D;" vertex="1" parent="1">
          <mxGeometry x="260" y="170" width="780" height="530" as="geometry" />
        </mxCell>
        <mxCell id="677b7b8949515195-16" value="" style="verticalLabelPosition=bottom;shadow=0;dashed=0;align=center;verticalAlign=top;strokeWidth=1;shape=mxgraph.mockup.graphics.simpleIcon;strokeColor=#999999;rounded=0;labelBackgroundColor=none;fontFamily=Verdana;fontSize=14;fontColor=#000000;comic=1;html=1;" parent="1" vertex="1">
          <mxGeometry x="330" y="260" width="650" height="240" as="geometry" />
        </mxCell>
        <mxCell id="677b7b8949515195-8" value="" style="whiteSpace=wrap;html=1;rounded=0;shadow=0;labelBackgroundColor=none;strokeWidth=1;fillColor=none;fontFamily=Verdana;fontSize=12;align=center;comic=1;" parent="1" vertex="1">
          <mxGeometry x="15" y="10" width="220" height="780" as="geometry" />
        </mxCell>
        <mxCell id="677b7b8949515195-2" value="KOL-list" style="whiteSpace=wrap;html=1;rounded=0;shadow=0;labelBackgroundColor=none;strokeWidth=1;fontFamily=Verdana;fontSize=28;align=center;comic=1;" parent="1" vertex="1">
          <mxGeometry x="30" y="20" width="190" height="40" as="geometry" />
        </mxCell>
        <mxCell id="677b7b8949515195-27" value="" style="text;html=1;points=[];align=left;verticalAlign=top;spacingTop=-4;fontSize=14;fontFamily=Verdana;strokeColor=#000000;strokeWidth=2;" parent="1" vertex="1">
          <mxGeometry x="30" y="85" width="190" height="145" as="geometry" />
        </mxCell>
        <mxCell id="LAibJ-5zCVIrmC9jEC37-7" value="" style="rounded=0;whiteSpace=wrap;html=1;fillColor=none;" vertex="1" parent="1">
          <mxGeometry x="-80" y="10" width="80" height="780" as="geometry" />
        </mxCell>
        <mxCell id="LAibJ-5zCVIrmC9jEC37-8" value="" style="rounded=0;whiteSpace=wrap;html=1;fillColor=none;" vertex="1" parent="1">
          <mxGeometry x="-65" y="20" width="50" height="50" as="geometry" />
        </mxCell>
        <mxCell id="LAibJ-5zCVIrmC9jEC37-10" value="" style="rounded=0;whiteSpace=wrap;html=1;fillColor=none;" vertex="1" parent="1">
          <mxGeometry x="-65" y="85" width="50" height="50" as="geometry" />
        </mxCell>
        <mxCell id="LAibJ-5zCVIrmC9jEC37-11" value="" style="rounded=0;whiteSpace=wrap;html=1;fillColor=none;" vertex="1" parent="1">
          <mxGeometry x="-65" y="145" width="50" height="50" as="geometry" />
        </mxCell>
        <mxCell id="LAibJ-5zCVIrmC9jEC37-12" value="" style="ellipse;whiteSpace=wrap;html=1;fillColor=none;" vertex="1" parent="1">
          <mxGeometry x="-65" y="730" width="50" height="49" as="geometry" />
        </mxCell>
        <mxCell id="LAibJ-5zCVIrmC9jEC37-13" value="" style="rounded=0;whiteSpace=wrap;html=1;strokeColor=#000000;strokeWidth=2;fillColor=none;" vertex="1" parent="1">
          <mxGeometry x="40" y="90" width="170" height="27.5" as="geometry" />
        </mxCell>
        <mxCell id="LAibJ-5zCVIrmC9jEC37-14" value="" style="rounded=0;whiteSpace=wrap;html=1;strokeColor=#000000;strokeWidth=2;fillColor=none;" vertex="1" parent="1">
          <mxGeometry x="40" y="125" width="170" height="30" as="geometry" />
        </mxCell>
        <mxCell id="LAibJ-5zCVIrmC9jEC37-15" value="" style="rounded=0;whiteSpace=wrap;html=1;strokeColor=#000000;strokeWidth=2;fillColor=none;" vertex="1" parent="1">
          <mxGeometry x="40" y="160" width="170" height="27.5" as="geometry" />
        </mxCell>
        <mxCell id="LAibJ-5zCVIrmC9jEC37-16" value="" style="rounded=0;whiteSpace=wrap;html=1;strokeColor=#000000;strokeWidth=2;fillColor=none;" vertex="1" parent="1">
          <mxGeometry x="40" y="195" width="170" height="25" as="geometry" />
        </mxCell>
        <mxCell id="LAibJ-5zCVIrmC9jEC37-17" value="" style="ellipse;whiteSpace=wrap;html=1;strokeWidth=2;strokeColor=#FF1100;fillColor=#FF0D05;" vertex="1" parent="1">
          <mxGeometry x="50" y="127.5" width="20" height="22.5" as="geometry" />
        </mxCell>
        <mxCell id="LAibJ-5zCVIrmC9jEC37-19" value="TEXT" style="rounded=0;whiteSpace=wrap;html=1;strokeColor=#FF1100;strokeWidth=2;fillColor=none;" vertex="1" parent="1">
          <mxGeometry x="80" y="130" width="110" height="20" as="geometry" />
        </mxCell>
        <mxCell id="LAibJ-5zCVIrmC9jEC37-20" value="" style="ellipse;whiteSpace=wrap;html=1;strokeWidth=2;strokeColor=#FF1100;fillColor=#FF0D05;" vertex="1" parent="1">
          <mxGeometry x="50" y="162.5" width="20" height="22.5" as="geometry" />
        </mxCell>
        <mxCell id="LAibJ-5zCVIrmC9jEC37-21" value="" style="ellipse;whiteSpace=wrap;html=1;strokeWidth=2;strokeColor=#FF1100;fillColor=#FF0D05;" vertex="1" parent="1">
          <mxGeometry x="50" y="196.25" width="20" height="22.5" as="geometry" />
        </mxCell>
        <mxCell id="LAibJ-5zCVIrmC9jEC37-22" value="TEXT" style="rounded=0;whiteSpace=wrap;html=1;strokeColor=#FF1100;strokeWidth=2;fillColor=none;" vertex="1" parent="1">
          <mxGeometry x="80" y="162.5" width="110" height="20" as="geometry" />
        </mxCell>
        <mxCell id="LAibJ-5zCVIrmC9jEC37-23" value="TEXT" style="rounded=0;whiteSpace=wrap;html=1;strokeColor=#FF1100;strokeWidth=2;fillColor=none;" vertex="1" parent="1">
          <mxGeometry x="80" y="197.5" width="110" height="20" as="geometry" />
        </mxCell>
        <mxCell id="LAibJ-5zCVIrmC9jEC37-26" value="" style="rounded=0;whiteSpace=wrap;html=1;strokeColor=#000000;strokeWidth=2;fillColor=none;" vertex="1" parent="1">
          <mxGeometry x="400" y="50" width="70" height="70" as="geometry" />
        </mxCell>
        <mxCell id="LAibJ-5zCVIrmC9jEC37-27" value="" style="rounded=0;whiteSpace=wrap;html=1;strokeColor=#000000;strokeWidth=2;fillColor=none;" vertex="1" parent="1">
          <mxGeometry x="610" y="50" width="70" height="70" as="geometry" />
        </mxCell>
        <mxCell id="LAibJ-5zCVIrmC9jEC37-28" value="" style="rounded=0;whiteSpace=wrap;html=1;strokeColor=#000000;strokeWidth=2;fillColor=none;" vertex="1" parent="1">
          <mxGeometry x="810" y="50" width="70" height="70" as="geometry" />
        </mxCell>
        <mxCell id="LAibJ-5zCVIrmC9jEC37-31" value="" style="endArrow=none;html=1;entryX=1;entryY=0.5;entryDx=0;entryDy=0;exitX=0;exitY=0.5;exitDx=0;exitDy=0;" edge="1" parent="1" source="LAibJ-5zCVIrmC9jEC37-28" target="LAibJ-5zCVIrmC9jEC37-27">
          <mxGeometry width="50" height="50" relative="1" as="geometry">
            <mxPoint x="520" y="300" as="sourcePoint" />
            <mxPoint x="570" y="250" as="targetPoint" />
          </mxGeometry>
        </mxCell>
        <mxCell id="LAibJ-5zCVIrmC9jEC37-35" value="" style="rounded=0;whiteSpace=wrap;html=1;strokeColor=#99004D;strokeWidth=2;fillColor=none;" vertex="1" parent="1">
          <mxGeometry x="330" y="195" width="650" height="55" as="geometry" />
        </mxCell>
        <mxCell id="LAibJ-5zCVIrmC9jEC37-36" value="" style="rounded=0;whiteSpace=wrap;html=1;strokeColor=#99004D;strokeWidth=2;fillColor=none;" vertex="1" parent="1">
          <mxGeometry x="330" y="510" width="550" height="40" as="geometry" />
        </mxCell>
        <mxCell id="LAibJ-5zCVIrmC9jEC37-37" value="" style="rounded=0;whiteSpace=wrap;html=1;strokeWidth=2;fillColor=none;" vertex="1" parent="1">
          <mxGeometry x="350" y="520" width="20" height="20" as="geometry" />
        </mxCell>
        <mxCell id="LAibJ-5zCVIrmC9jEC37-38" value="Text" style="text;html=1;fillColor=none;align=center;verticalAlign=middle;whiteSpace=wrap;rounded=0;strokeColor=#000000;" vertex="1" parent="1">
          <mxGeometry x="380" y="520" width="380" height="20" as="geometry" />
        </mxCell>
        <mxCell id="LAibJ-5zCVIrmC9jEC37-39" value="Text" style="text;html=1;fillColor=none;align=center;verticalAlign=middle;whiteSpace=wrap;rounded=0;strokeColor=#000000;" vertex="1" parent="1">
          <mxGeometry x="340" y="210" width="180" height="30" as="geometry" />
        </mxCell>
        <mxCell id="LAibJ-5zCVIrmC9jEC37-42" value="" style="rounded=0;whiteSpace=wrap;html=1;strokeWidth=2;fillColor=none;strokeColor=#3333FF;" vertex="1" parent="1">
          <mxGeometry x="260" y="710" width="780" height="60" as="geometry" />
        </mxCell>
        <mxCell id="LAibJ-5zCVIrmC9jEC37-43" value="" style="rounded=1;whiteSpace=wrap;html=1;strokeColor=#3333FF;strokeWidth=2;fillColor=none;" vertex="1" parent="1">
          <mxGeometry x="850" y="725" width="80" height="30" as="geometry" />
        </mxCell>
        <mxCell id="LAibJ-5zCVIrmC9jEC37-44" value="" style="rounded=1;whiteSpace=wrap;html=1;strokeColor=#3333FF;strokeWidth=2;fillColor=none;" vertex="1" parent="1">
          <mxGeometry x="940" y="725" width="80" height="30" as="geometry" />
        </mxCell>
        <mxCell id="LAibJ-5zCVIrmC9jEC37-46" value="" style="endArrow=none;html=1;entryX=1;entryY=0.5;entryDx=0;entryDy=0;exitX=0;exitY=0.5;exitDx=0;exitDy=0;" edge="1" parent="1" source="LAibJ-5zCVIrmC9jEC37-27" target="LAibJ-5zCVIrmC9jEC37-26">
          <mxGeometry width="50" height="50" relative="1" as="geometry">
            <mxPoint x="605" y="84" as="sourcePoint" />
            <mxPoint x="475" y="84" as="targetPoint" />
          </mxGeometry>
        </mxCell>
        <mxCell id="LAibJ-5zCVIrmC9jEC37-47" value="Text" style="text;html=1;strokeColor=none;fillColor=none;align=center;verticalAlign=middle;whiteSpace=wrap;rounded=0;" vertex="1" parent="1">
          <mxGeometry x="410" y="93.75" width="50" height="16.25" as="geometry" />
        </mxCell>
        <mxCell id="LAibJ-5zCVIrmC9jEC37-48" value="" style="ellipse;whiteSpace=wrap;html=1;aspect=fixed;strokeColor=#3333FF;strokeWidth=2;fillColor=none;" vertex="1" parent="1">
          <mxGeometry x="420" y="60" width="30" height="30" as="geometry" />
        </mxCell>
        <mxCell id="LAibJ-5zCVIrmC9jEC37-49" value="Text" style="text;html=1;strokeColor=none;fillColor=none;align=center;verticalAlign=middle;whiteSpace=wrap;rounded=0;" vertex="1" parent="1">
          <mxGeometry x="620" y="93.75" width="50" height="16.25" as="geometry" />
        </mxCell>
        <mxCell id="LAibJ-5zCVIrmC9jEC37-50" value="" style="ellipse;whiteSpace=wrap;html=1;aspect=fixed;strokeColor=#3333FF;strokeWidth=2;fillColor=none;" vertex="1" parent="1">
          <mxGeometry x="630" y="60" width="30" height="30" as="geometry" />
        </mxCell>
        <mxCell id="LAibJ-5zCVIrmC9jEC37-51" value="Text" style="text;html=1;strokeColor=none;fillColor=none;align=center;verticalAlign=middle;whiteSpace=wrap;rounded=0;" vertex="1" parent="1">
          <mxGeometry x="820" y="93.75" width="50" height="16.25" as="geometry" />
        </mxCell>
        <mxCell id="LAibJ-5zCVIrmC9jEC37-52" value="" style="ellipse;whiteSpace=wrap;html=1;aspect=fixed;strokeColor=#3333FF;strokeWidth=2;fillColor=none;" vertex="1" parent="1">
          <mxGeometry x="830" y="60" width="30" height="30" as="geometry" />
        </mxCell>
      </root>
    </mxGraphModel>
  </diagram>
</mxfile>
